<svg xmlns="http://www.w3.org/2000/svg" width="229" height="228" viewBox="0 0 229 228">
  <g id="グループ_584" data-name="グループ 584" transform="translate(0 2)">
    <rect id="長方形_59" data-name="長方形 59" width="229" height="228" transform="translate(0 -2)" fill="#231f20"/>
    <g id="グループ_6" data-name="グループ 6" transform="translate(21.378 28.497)" style="isolation: isolate">
      <g id="グループ_2" data-name="グループ 2" transform="translate(53.422 152.597)">
        <g id="グループ_1" data-name="グループ 1">
          <path id="パス_1" data-name="パス 1" d="M40.953,98.563H39.888v-5.2h-4.7v5.2H34.12V87.71h1.065v4.636h4.7V87.71h1.065Z" transform="translate(-34.12 -87.148)" fill="#fff" stroke="#fff" stroke-miterlimit="10" stroke-width="1"/>
          <path id="パス_2" data-name="パス 2" d="M47.1,98.571H45.96L44.9,95.041H41.479l-1.033,3.53h-1.1L42.607,87.7h1.239ZM44.689,94.11l-.969-3.231c-.207-.738-.381-1.423-.508-2.072h-.032c-.127.65-.318,1.335-.493,2.02L41.7,94.093h2.987Z" transform="translate(-31.04 -87.156)" fill="#fff" stroke="#fff" stroke-miterlimit="10" stroke-width="1"/>
          <path id="パス_3" data-name="パス 3" d="M50.743,89.46l-1.875,5.514c-.842,2.529-1.43,3.987-2.3,4.9a3.459,3.459,0,0,1-1.43.913l-.3-1A4.364,4.364,0,0,0,47.1,96.994a1.27,1.27,0,0,0-.079-.334l-2.495-7.2h1.176l1.541,4.724c.175.544.334,1.159.445,1.633h.032c.111-.474.286-1.054.445-1.651l1.414-4.689h1.16Z" transform="translate(-27.989 -85.825)" fill="#fff" stroke="#fff" stroke-miterlimit="10" stroke-width="1"/>
          <path id="パス_4" data-name="パス 4" d="M54,95.456a11.428,11.428,0,0,0,.111,1.862h-.985l-.111-1h-.032A2.4,2.4,0,0,1,50.9,97.494a2.066,2.066,0,0,1-2.05-2.213c0-1.862,1.478-2.88,4.084-2.863,0-.65,0-2.143-1.6-2.143a2.86,2.86,0,0,0-1.716.562l-.254-.808a3.664,3.664,0,0,1,2.145-.65c1.986,0,2.511,1.563,2.511,3.091v2.986Zm-1.065-2.2c-1.335,0-3,.211-3,1.862,0,1,.572,1.44,1.208,1.44a1.8,1.8,0,0,0,1.78-1.826V93.261Z" transform="translate(-25.444 -85.885)" fill="#fff" stroke="#fff" stroke-miterlimit="10" stroke-width="1"/>
          <path id="パス_5" data-name="パス 5" d="M63,97.323H61.936v-4.5c0-1.51-.493-2.476-1.557-2.476a1.923,1.923,0,0,0-1.653,2.09v4.9H57.662V92.546c0-1.247-.477-2.178-1.478-2.178a2.05,2.05,0,0,0-1.732,2.213v4.759H53.388v-5.8c0-.808-.032-1.37-.048-2.02h.938l.064,1.247h.032a2.325,2.325,0,0,1,2.145-1.423,2.046,2.046,0,0,1,1.923,1.563h.032a2.456,2.456,0,0,1,2.256-1.563c.858,0,2.24.615,2.24,3.284v4.689Z" transform="translate(-22.8 -85.908)" fill="#fff" stroke="#fff" stroke-miterlimit="10" stroke-width="1"/>
          <path id="パス_6" data-name="パス 6" d="M65.528,95.456a13.664,13.664,0,0,0,.1,1.862h-.985l-.1-1h-.032a2.4,2.4,0,0,1-2.082,1.177,2.066,2.066,0,0,1-2.05-2.213c0-1.862,1.478-2.88,4.084-2.863,0-.65,0-2.143-1.6-2.143a2.86,2.86,0,0,0-1.716.562l-.254-.808a3.664,3.664,0,0,1,2.145-.65c1.986,0,2.511,1.563,2.511,3.091v2.986Zm-1.049-2.2c-1.335,0-2.987.211-2.987,1.862,0,1,.572,1.44,1.208,1.44a1.8,1.8,0,0,0,1.78-1.826Z" transform="translate(-18.653 -85.885)" fill="#fff" stroke="#fff" stroke-miterlimit="10" stroke-width="1"/>
          <path id="パス_7" data-name="パス 7" d="M71.613,98.315a5.464,5.464,0,0,1-2.447.492c-2.526,0-4.576-1.809-4.576-5.5,0-3.512,1.97-5.69,4.862-5.69a4.394,4.394,0,0,1,2.161.439l-.286,1a3.868,3.868,0,0,0-1.859-.439c-2.241,0-3.75,1.651-3.75,4.654,0,2.845,1.4,4.531,3.686,4.531a4.632,4.632,0,0,0,1.97-.439Z" transform="translate(-16.173 -87.216)" fill="#fff" stroke="#fff" stroke-miterlimit="10" stroke-width="1"/>
          <path id="パス_8" data-name="パス 8" d="M78.062,93.107c0,3.829-1.939,5.708-4.258,5.708-2.447,0-4.163-2.125-4.163-5.515,0-3.548,1.827-5.69,4.29-5.69C76.425,87.592,78.062,89.823,78.062,93.107Zm-7.309.158c0,2.318,1.081,4.566,3.083,4.566,2.034,0,3.1-2.178,3.1-4.672,0-2.178-.969-4.584-3.067-4.584C71.69,88.576,70.752,90.947,70.752,93.265Z" transform="translate(-13.199 -87.224)" fill="#fff" stroke="#fff" stroke-miterlimit="10" stroke-width="1"/>
          <path id="パス_9" data-name="パス 9" d="M81.8,96.891c0,.632.032,1.4.048,1.932H80.9l-.048-1.335h-.032a2.481,2.481,0,0,1-2.3,1.493c-1.621,0-2.892-1.563-2.892-3.951,0-2.634,1.4-4.162,3.035-4.162a2.224,2.224,0,0,1,2.05,1.194h.032V87.39H81.8v9.5Zm-1.065-2.74a2.06,2.06,0,0,0-1.891-2.318c-1.335,0-2.113,1.37-2.113,3.161,0,1.633.7,3.038,2.082,3.038a2.165,2.165,0,0,0,1.939-2.371v-1.51Z" transform="translate(-9.677 -87.39)" fill="#fff" stroke="#fff" stroke-miterlimit="10" stroke-width="1"/>
          <path id="パス_10" data-name="パス 10" d="M86.012,96.992a4.741,4.741,0,0,1-2.209.492c-2.05,0-3.273-1.6-3.273-3.916,0-2.441,1.239-4.2,3.13-4.2,2.177,0,2.733,2.2,2.733,3.548,0,.263-.016.474-.032.65h-4.8c.016,2.16,1.128,2.968,2.383,2.968a3.907,3.907,0,0,0,1.843-.4Zm-.683-4.32c.016-1.054-.381-2.424-1.764-2.424-1.287,0-1.859,1.352-1.97,2.424Z" transform="translate(-6.785 -85.893)" fill="#fff" stroke="#fff" stroke-miterlimit="10" stroke-width="1"/>
        </g>
      </g>
      <path id="パス_11" data-name="パス 11" d="M13.42,87.11,31.328,74.5,50.412,87.11,69.623,74.5,87.4,87.11,107.9,74.5l16.51,12.61L146.2,74.5,161.4,87.11" transform="translate(7.11 55.46)" fill="none" stroke="#fff" stroke-linecap="round" stroke-miterlimit="10" stroke-width="1"/>
      <path id="パス_12" data-name="パス 12" d="M13.42,92.01,31.328,79.4,50.412,92.01,69.623,79.4,87.4,92.01,107.9,79.4l16.51,12.61L146.2,79.4,161.4,92.01" transform="translate(7.11 59.165)" fill="none" stroke="#fff" stroke-linecap="round" stroke-miterlimit="10" stroke-width="0.75"/>
      <g id="グループ_3" data-name="グループ 3" transform="translate(7.711 14.067)">
        <path id="パス_13" data-name="パス 13" d="M108.935,23.912a8.012,8.012,0,0,1,4.529,4.215q1.692,3.293,1.033,8.711-.953,8.14-8.152,16.684a42.986,42.986,0,0,1-17.876,12.61q-9.248,22-14.428,34.51a2.707,2.707,0,0,1-1.462,1.458,2.209,2.209,0,0,1-1.939-.053,2.579,2.579,0,0,1-1.319-1.563,3.069,3.069,0,0,1,.1-2.248q5.2-12.513,12.632-30.33a40.234,40.234,0,0,1-7.262.825c-2.082,0-4.115.035-6.134.105Q66.008,74.052,64.03,77.6q-4.052,6.876-7.5,11.732A73.754,73.754,0,0,1,48.791,98.5a42.821,42.821,0,0,1-9.391,7.2,48,48,0,0,1-11.409,4.531,20.608,20.608,0,0,1-5.371.72,16.9,16.9,0,0,1-8.914-2.441,16.7,16.7,0,0,1-6.277-7.042A18.775,18.775,0,0,1,5.777,88.8,24.885,24.885,0,0,1,12.34,76.458Q22.9,65.209,65.635,63.321q7.46-15.016,18.019-39.3a43.157,43.157,0,0,1-14.9,3.231q-6.6.211-19.99-1.563c-6.165-.773-10.853-1.247-14.047-1.458a12.428,12.428,0,0,0-6.563,1.3,9.926,9.926,0,0,0-4.386,4.531,11.176,11.176,0,0,0-1.414,6.252,14.534,14.534,0,0,0,1.986,6.568,9.07,9.07,0,0,0,3.814,3.6,11.415,11.415,0,0,0,4.576,1.3,22.893,22.893,0,0,0,4.576-.263,21.888,21.888,0,0,0,3.4-.72,12.839,12.839,0,0,1,1.462-.474,1.478,1.478,0,0,1,.985-.263,3.172,3.172,0,0,1,.985.263,1.951,1.951,0,0,1,.794.632,3.218,3.218,0,0,1,.524,1.036,2.8,2.8,0,0,1-.048,2.09,2.518,2.518,0,0,1-1.462,1.458,25.646,25.646,0,0,1-9.995,1.985q-9.534,0-13.872-7.6a19.339,19.339,0,0,1-2.828-9.431,18.093,18.093,0,0,1,2.082-9.325,15.71,15.71,0,0,1,6.42-6.568A16.6,16.6,0,0,1,35,18.608c3.337.211,8.136.72,14.428,1.563q12.919,1.66,19.243,1.458a36.407,36.407,0,0,0,7.643-1.089,47.92,47.92,0,0,0,7.6-2.6,44.111,44.111,0,0,0,6.928-3.864,37.913,37.913,0,0,0,5.752-4.742,2.315,2.315,0,0,1,1.8-.825,2.4,2.4,0,0,1,1.8.825,2.727,2.727,0,0,1,.7,2.037,3.169,3.169,0,0,1-.794,2.037,42.655,42.655,0,0,1-9.248,7.2Q80.182,45.426,71.593,63.146H74.8A35.334,35.334,0,0,0,84.8,61.477Q94.689,38.032,98.384,29.8a11.166,11.166,0,0,1,4.624-5.269A6.821,6.821,0,0,1,108.935,23.912ZM59.692,74.561c.874-1.6,1.859-3.407,2.924-5.427Q24.6,71.216,15.836,80.5a19.8,19.8,0,0,0-4.243,6.674,14.9,14.9,0,0,0-1.081,6.357,15.259,15.259,0,0,0,1.367,5.216,11.5,11.5,0,0,0,6.134,5.673,13.325,13.325,0,0,0,8.771.263,46.313,46.313,0,0,0,10.328-4.11A37.983,37.983,0,0,0,45.6,94.055a68.953,68.953,0,0,0,7.119-8.447C54.845,82.622,57.181,78.952,59.692,74.561ZM109.4,36.1a13.81,13.81,0,0,0,.143-2.494,7.806,7.806,0,0,0-.334-2.037,5.35,5.35,0,0,0-.747-1.51,2.37,2.37,0,0,0-1.033-.825,2.827,2.827,0,0,0-.747-.105c-1.51,0-2.733,1.036-3.671,3.126q-3.313,7.192-11.314,26.273a38.811,38.811,0,0,0,12.219-10.379C107.123,43.933,108.967,39.929,109.4,36.1Z" transform="translate(-5.353 -8.51)" fill="#fff" stroke="#fff" stroke-miterlimit="10" stroke-width="1"/>
        <path id="パス_14" data-name="パス 14" d="M91.927,51.215c.572-.07.842-.105.842-.105l.667.58a2.183,2.183,0,0,1,.747,1.51,2.5,2.5,0,0,1-.381,1.668c-2.018,2.915-3.178,4.566-3.5,4.953s-.937,1.194-1.891,2.441a14.128,14.128,0,0,1-2.352,2.6c-.636.492-1.4,1.089-2.3,1.826a7.8,7.8,0,0,1-2.685,1.458,9.755,9.755,0,0,1-2.638.369h-.191a3.2,3.2,0,0,1-2.733-1.879A10.577,10.577,0,0,1,74.48,63.3q-4.91,6.243-8.39,6.463h-.381a4.451,4.451,0,0,1-3.861-2.3q-3.385-5.111,0-13.347A31.567,31.567,0,0,1,68.68,43.786q4.576-4.689,9.3-5.111a10.855,10.855,0,0,1,3.019,0,9.111,9.111,0,0,1,2.256.58,7.132,7.132,0,0,1,1.557.931c.477.386.779.667.938.825a1.507,1.507,0,0,1,.334.58,2.5,2.5,0,0,1,.381,1.668,1.99,1.99,0,0,1-.794,1.458,1.827,1.827,0,0,1-1.51.369,2.292,2.292,0,0,1-1.367-.878c-.747-.966-2.24-1.317-4.433-1.036q-3.313.316-7.023,4.057a26.942,26.942,0,0,0-5.8,8.764q-2.36,5.848-.381,8.763.286.527.667.527,1.978-.211,5.8-5.321a83,83,0,0,0,7.119-11.468A1.919,1.919,0,0,1,79.914,47.4a1.766,1.766,0,0,1,1.557.211,2.185,2.185,0,0,1,.985,1.4,2.016,2.016,0,0,1-.238,1.668c-.937,1.879-1.923,3.723-2.924,5.532l-.1.105a11.934,11.934,0,0,0-.747,3.284,13.433,13.433,0,0,0,.381,4.32,11.961,11.961,0,0,0,5.418-3.811,84.365,84.365,0,0,0,6.277-8.079A2.059,2.059,0,0,1,91.927,51.215Z" transform="translate(26.925 14.222)" fill="#fff" stroke="#fff" stroke-miterlimit="10" stroke-width="1"/>
        <path id="パス_15" data-name="パス 15" d="M102.91,52.769a1.935,1.935,0,0,1,1.51.58,2.212,2.212,0,0,1,.715,1.563,2.419,2.419,0,0,1-.524,1.668A47.3,47.3,0,0,1,94.282,66.643q-4.958,3.293-8.724,3.284a6.348,6.348,0,0,1-3.21-.825c-1.827-1.036-3.051-2.9-3.686-5.585a14.7,14.7,0,0,1,0-7.341,30.217,30.217,0,0,1,6.515-12.61c3.273-3.9,6.626-5.6,10.09-5.111a4.271,4.271,0,0,1,3.671,2.7,5.538,5.538,0,0,1,.429,2.494,14.168,14.168,0,0,1-.334,2.7,21.189,21.189,0,0,1-.794,2.6c-.35.9-.636,1.581-.858,2.037s-.429.878-.62,1.3a2.278,2.278,0,0,1-1.271.983,1.682,1.682,0,0,1-1.557-.263,2.181,2.181,0,0,1-.937-1.4,2.365,2.365,0,0,1,.286-1.721,25.927,25.927,0,0,0,1.6-3.969,5.033,5.033,0,0,0,.381-2.81q-.1-.211-.572-.211-3.218-.527-6.976,4.215a26.388,26.388,0,0,0-5.1,10.168,10.563,10.563,0,0,0-.143,4.584,4.136,4.136,0,0,0,1.748,3.126c1.382.825,3.623.4,6.69-1.3q4.624-2.555,10.567-10.168A1.974,1.974,0,0,1,102.91,52.769Z" transform="translate(37.552 14.073)" fill="#fff" stroke="#fff" stroke-miterlimit="10" stroke-width="1"/>
        <path id="パス_16" data-name="パス 16" d="M120.653,42.551a1.871,1.871,0,0,1,1.557.263,2.07,2.07,0,0,1,.89,1.4,2.152,2.152,0,0,1-.286,1.668,16.357,16.357,0,0,1-5.609,6.252,15.249,15.249,0,0,1-6.737,2.388,52.329,52.329,0,0,1-4.433,7.921q-5.1,7.613-8.867,7.6a4.022,4.022,0,0,1-1.986-.527,6.484,6.484,0,0,1-2.638-4.268,21.9,21.9,0,0,1-.572-6.357A22.177,22.177,0,0,1,93,53.176a25.881,25.881,0,0,1,6.038-10.537q4.243-4.478,9.343-4.478a1.758,1.758,0,0,1,1.414.685,2.42,2.42,0,0,1,.572,1.616,2.276,2.276,0,0,1-.191.948A5.123,5.123,0,0,1,111.6,43.5a11.179,11.179,0,0,1,.381,6.147A11.967,11.967,0,0,0,119.43,43.6,1.719,1.719,0,0,1,120.653,42.551ZM102.729,59.761a43.885,43.885,0,0,0,3.4-5.831,6.61,6.61,0,0,1-4.433-3.864,7.376,7.376,0,0,1-.572-3.337,21.331,21.331,0,0,0-4.243,7.921,21.035,21.035,0,0,0-.794,6.832c.1,2.406.429,3.741.985,4.022a.8.8,0,0,0,.62-.053,8.679,8.679,0,0,0,1.843-1.616A33.261,33.261,0,0,0,102.729,59.761Zm5.005-10.01q.763-2.924.1-4.373a1.213,1.213,0,0,0-.937-.931h-.1a.625.625,0,0,0-.572.316c-.938,1.387-1.224,2.494-.842,3.337A3.252,3.252,0,0,0,107.735,49.751Z" transform="translate(45.646 13.912)" fill="#fff" stroke="#fff" stroke-miterlimit="10" stroke-width="1"/>
      </g>
      <g id="グループ_4" data-name="グループ 4" transform="translate(0 0)">
        <line id="線_1" data-name="線 1" x2="9.153" y2="1.528" transform="translate(3.957 26.027)" fill="none" stroke="#fff" stroke-linecap="round" stroke-miterlimit="10" stroke-width="1"/>
        <line id="線_2" data-name="線 2" x2="12.521" y2="4.215" transform="translate(0 15.297)" fill="none" stroke="#fff" stroke-linecap="round" stroke-miterlimit="10" stroke-width="1"/>
        <line id="線_3" data-name="線 3" x2="8.898" y2="13.716" transform="translate(5.577 1.528)" fill="none" stroke="#fff" stroke-linecap="round" stroke-miterlimit="10" stroke-width="1"/>
        <line id="線_4" data-name="線 4" x2="0.238" y2="12.048" transform="translate(18.035)" fill="none" stroke="#fff" stroke-linecap="round" stroke-miterlimit="10" stroke-width="1"/>
        <line id="線_5" data-name="線 5" x1="1.144" y2="8.36" transform="translate(24.296 4.391)" fill="none" stroke="#fff" stroke-linecap="round" stroke-miterlimit="10" stroke-width="1"/>
      </g>
      <g id="グループ_5" data-name="グループ 5" transform="translate(69.948 93.554)">
        <path id="パス_17" data-name="パス 17" d="M99.84,72.193s2.94-14.278,12.807-13.295a18.349,18.349,0,0,0,15.207-5.128S123.071,66.906,115.841,70.1C108.611,73.317,99.84,72.193,99.84,72.193Z" transform="translate(-11.937 -53.77)" fill="none" stroke="#fff" stroke-miterlimit="10" stroke-width="1"/>
        <path id="パス_18" data-name="パス 18" d="M44.52,77.278s10.948-16.35,26.854-13.505C86.628,66.5,105.951,89.045,116.9,81.335s14.857-15.876,14.857-15.876" transform="translate(-44.52 -46.457)" fill="none" stroke="#fff" stroke-linecap="round" stroke-miterlimit="10" stroke-width="1"/>
        <path id="パス_19" data-name="パス 19" d="M100.23,66.9s2.193-4.672,6.626-4c4.719.72,9.947-3.583,9.947-3.583" transform="translate(-11.707 -49.581)" fill="none" stroke="#fff" stroke-linecap="round" stroke-miterlimit="10" stroke-width="1"/>
      </g>
      <path id="パス_20" data-name="パス 20" d="M109.852,66.4s-6.69,9.361-15.223,4.689-14-2.529-14-2.529,7.1-7.113,14.508-6.955C102.542,61.742,109.852,66.4,109.852,66.4Z" transform="translate(46.696 45.703)" fill="none" stroke="#fff" stroke-miterlimit="10" stroke-width="1"/>
      <path id="パス_21" data-name="パス 21" d="M10.29,26.767s.89-10.168,8.517-13.874c8.644-4.215,12.553-.983,12.553-.983" transform="translate(5.266 7.233)" fill="none" stroke="#fff" stroke-linecap="round" stroke-miterlimit="10" stroke-width="1"/>
      <path id="パス_22" data-name="パス 22" d="M96.943,63.68c-2.59-.386-5.117.509-5.132,1.036-.032.65,3.178.562,4.513.351a48.98,48.98,0,0,1,6.864-.035S99.072,64,96.943,63.68Z" transform="translate(53.281 47.207)" fill="#fff" stroke="#fff" stroke-miterlimit="10" stroke-width="1"/>
    </g>
  </g>
</svg>
