<?xml version="1.0" encoding="utf-8"?>
<!-- Generator: Adobe Illustrator 22.0.1, SVG Export Plug-In . SVG Version: 6.00 Build 0)  -->
<svg version="1.1" id="レイヤー_1" xmlns="http://www.w3.org/2000/svg" xmlns:xlink="http://www.w3.org/1999/xlink" x="0px"
	 y="0px" viewBox="0 0 66.9 114.5" style="enable-background:new 0 0 66.9 114.5;" xml:space="preserve">
<style type="text/css">
	.st0{fill:#FFFFFF;stroke:#000000;stroke-width:0.4007;stroke-linecap:round;stroke-miterlimit:10;}
	.st1{fill:none;stroke:#000000;stroke-width:0.8015;stroke-linecap:round;stroke-miterlimit:10;}
	.st2{fill:none;stroke:#000000;stroke-width:0.4007;stroke-linecap:round;stroke-miterlimit:10;}
</style>
<g>
	<polygon class="st0" points="33.5,5.4 3.5,53 33.4,100.8 63.3,53 	"/>
	<polygon class="st1" points="33.5,0.8 0.5,53 33.4,105.2 66.5,53 	"/>
	<g>
		<g>
			<path d="M18.4,114.1h-0.7v-2.9h-2.9v2.9h-0.7V108h0.7v2.6h2.9V108h0.7V114.1z"/>
			<path d="M24.1,114.1h-0.7l-0.7-2h-2.1l-0.6,2h-0.7l2-6.2h0.8L24.1,114.1z M22.6,111.6l-0.6-1.8c-0.1-0.4-0.2-0.8-0.3-1.2h0
				c-0.1,0.4-0.2,0.8-0.3,1.1l-0.6,1.8H22.6z"/>
			<path d="M27.1,110.1l-0.8,2.1c-0.4,1-0.6,1.5-1,1.9c-0.3,0.2-0.5,0.3-0.6,0.4l-0.1-0.4c0.7-0.3,1-1,1-1.1c0,0,0-0.1,0-0.1
				l-1.1-2.8h0.5l0.7,1.8c0.1,0.2,0.1,0.4,0.2,0.6h0c0-0.2,0.1-0.4,0.2-0.6l0.6-1.8H27.1z"/>
			<path d="M29.5,112.4c0,0.2,0,0.5,0,0.7h-0.4l0-0.4h0c-0.2,0.2-0.5,0.5-0.9,0.5c-0.6,0-0.9-0.4-0.9-0.9c0-0.7,0.6-1.1,1.7-1.1
				c0-0.3,0-0.8-0.7-0.8c-0.3,0-0.5,0.1-0.7,0.2l-0.1-0.3c0.2-0.2,0.6-0.3,0.9-0.3c0.9,0,1.1,0.6,1.1,1.2V112.4z M29.1,111.6
				c-0.6,0-1.3,0.1-1.3,0.7c0,0.4,0.2,0.6,0.5,0.6c0.4,0,0.8-0.3,0.8-0.7V111.6z"/>
			<path d="M34.5,113.2h-0.5v-1.7c0-0.6-0.2-1-0.7-1c-0.4,0-0.7,0.3-0.7,0.8v1.9h-0.5v-1.9c0-0.5-0.2-0.8-0.6-0.8
				c-0.4,0-0.7,0.4-0.7,0.9v1.8h-0.5v-2.2c0-0.3,0-0.5,0-0.8h0.4l0,0.5h0c0.2-0.3,0.4-0.6,0.9-0.6c0.4,0,0.7,0.2,0.8,0.6h0
				c0.2-0.4,0.5-0.6,1-0.6c0.4,0,1,0.2,1,1.3V113.2z"/>
			<path d="M37.4,112.4c0,0.2,0,0.5,0,0.7H37l0-0.4h0c-0.2,0.2-0.5,0.5-0.9,0.5c-0.6,0-0.9-0.4-0.9-0.9c0-0.7,0.6-1.1,1.7-1.1
				c0-0.3,0-0.8-0.7-0.8c-0.3,0-0.5,0.1-0.7,0.2l-0.1-0.3c0.2-0.2,0.6-0.3,0.9-0.3c0.9,0,1.1,0.6,1.1,1.2V112.4z M36.9,111.6
				c-0.6,0-1.3,0.1-1.3,0.7c0,0.4,0.2,0.6,0.5,0.6c0.4,0,0.8-0.3,0.8-0.7V111.6z"/>
			<path d="M41.9,113.5c-0.2,0.1-0.7,0.2-1.3,0.2c-1.4,0-2.4-0.9-2.4-2.7c0-1.7,1.1-2.8,2.6-2.8c0.6,0,1,0.1,1.2,0.2l-0.2,0.5
				c-0.2-0.1-0.6-0.2-1-0.2c-1.2,0-2,0.8-2,2.3c0,1.4,0.7,2.2,2,2.2c0.4,0,0.8-0.1,1.1-0.2L41.9,113.5z"/>
			<path d="M46.9,111c0,1.9-1,2.8-2.3,2.8c-1.3,0-2.2-1-2.2-2.7c0-1.7,1-2.8,2.3-2.8C46,108.3,46.9,109.4,46.9,111z M43,111.1
				c0,1.1,0.6,2.2,1.7,2.2c1.1,0,1.7-1.1,1.7-2.3c0-1.1-0.5-2.2-1.6-2.2C43.5,108.8,43,110,43,111.1z"/>
			<path d="M50.1,112.4c0,0.2,0,0.5,0,0.7h-0.4l0-0.5h0c-0.2,0.3-0.5,0.6-1,0.6c-0.7,0-1.2-0.6-1.2-1.5c0-1,0.6-1.6,1.3-1.6
				c0.4,0,0.7,0.2,0.9,0.5h0v-1.8h0.5V112.4z M49.6,111.4c0-0.6-0.4-0.9-0.8-0.9c-0.6,0-0.9,0.5-0.9,1.2c0,0.6,0.3,1.2,0.9,1.2
				c0.5,0,0.8-0.4,0.8-0.9V111.4z"/>
			<path d="M53.1,113c-0.2,0.1-0.5,0.2-0.9,0.2c-0.9,0-1.4-0.6-1.4-1.5c0-0.9,0.5-1.6,1.3-1.6c0.9,0,1.2,0.9,1.2,1.4
				c0,0.1,0,0.2,0,0.3h-2.1c0,0.8,0.5,1.1,1,1.1c0.4,0,0.6-0.1,0.8-0.2L53.1,113z M52.8,111.4c0-0.4-0.2-0.9-0.8-0.9
				c-0.6,0-0.8,0.5-0.8,0.9H52.8z"/>
		</g>
	</g>
	<g>
		<line class="st2" x1="24.4" y1="26.7" x2="28.2" y2="29.4"/>
		<line class="st2" x1="26.3" y1="22.6" x2="30.7" y2="27.2"/>
		<line class="st2" x1="40" y1="22.6" x2="36" y2="27.2"/>
		<line class="st2" x1="42" y1="26.7" x2="38.5" y2="29.4"/>
	</g>
	<polygon points="40.4,76.6 40.4,84.2 33.4,80.2 25.8,84.2 25.8,76.6 33.4,78.6 	"/>
	<g>
		<path d="M38.1,41.8c0.4,0.1,0.8,0.4,1.1,0.9c0.3,0.5,0.3,1.1,0.2,1.8c-0.1,1.1-0.8,2.3-1.9,3.5c-1.1,1.2-2.5,2.1-4.2,2.7
			c-1.4,3.1-2.6,5.5-3.4,7.3c-0.1,0.1-0.2,0.2-0.3,0.3c-0.2,0.1-0.3,0.1-0.5,0c-0.1-0.1-0.2-0.2-0.3-0.3c-0.1-0.2-0.1-0.3,0-0.5
			c0.8-1.8,1.8-3.9,3-6.4c-0.6,0.1-1.1,0.2-1.7,0.2c-0.5,0-1,0-1.4,0c-0.4,0.7-0.8,1.4-1.1,1.8c-0.6,1-1.2,1.8-1.8,2.5
			c-0.5,0.7-1.1,1.3-1.8,1.9c-0.7,0.6-1.4,1.1-2.2,1.5c-0.8,0.4-1.7,0.7-2.7,1c-0.4,0.1-0.8,0.2-1.3,0.2c-0.8,0-1.5-0.2-2.1-0.5
			c-0.6-0.3-1.1-0.8-1.5-1.5c-0.5-0.8-0.6-1.7-0.4-2.7c0.2-1,0.7-1.8,1.5-2.6c1.6-1.6,5.8-2.5,12.4-2.8c1.2-2.1,2.6-4.9,4.2-8.3
			c-1.2,0.4-2.3,0.7-3.5,0.7c-1,0-2.6-0.1-4.7-0.3c-1.4-0.2-2.5-0.3-3.3-0.3c-0.6,0-1.1,0.1-1.5,0.3c-0.4,0.2-0.8,0.5-1,1
			c-0.3,0.4-0.4,0.8-0.3,1.3s0.2,0.9,0.5,1.4c0.2,0.3,0.5,0.6,0.9,0.8c0.4,0.2,0.7,0.3,1.1,0.3c0.3,0,0.7,0,1.1-0.1
			c0.4-0.1,0.6-0.1,0.8-0.2c0.2-0.1,0.3-0.1,0.3-0.1c0.1,0,0.2-0.1,0.2-0.1c0.1,0,0.2,0,0.2,0.1c0.1,0,0.1,0.1,0.2,0.1
			c0.1,0.1,0.1,0.1,0.1,0.2c0.1,0.1,0.1,0.3,0,0.4c-0.1,0.1-0.2,0.2-0.3,0.3c-0.7,0.3-1.5,0.4-2.3,0.4c-1.5,0-2.6-0.5-3.2-1.6
			c-0.4-0.6-0.6-1.3-0.7-2c0-0.7,0.1-1.4,0.5-2c0.4-0.6,0.9-1.1,1.5-1.4c0.6-0.3,1.4-0.5,2.2-0.4c0.8,0,1.9,0.2,3.4,0.3
			c2,0.2,3.5,0.3,4.5,0.3c0.6,0,1.2-0.1,1.8-0.2c0.6-0.1,1.2-0.3,1.8-0.6c0.6-0.2,1.1-0.5,1.6-0.8s1-0.6,1.3-1
			c0.1-0.1,0.3-0.2,0.4-0.2c0.2,0,0.3,0.1,0.4,0.2c0.1,0.1,0.2,0.3,0.2,0.4c0,0.2-0.1,0.3-0.2,0.4c-0.6,0.6-1.3,1.1-2.2,1.5
			c-1.7,3.5-3.2,6.5-4.5,9c0.2,0,0.5,0,0.7,0c0.8,0,1.6-0.1,2.3-0.4c1.5-3.3,2.6-5.5,3.2-6.7c0.3-0.5,0.6-0.9,1.1-1.1
			C37.1,41.7,37.6,41.7,38.1,41.8z M26.6,52.5c0.2-0.3,0.4-0.7,0.7-1.1c-5.9,0.3-9.6,1.1-10.9,2.4c-0.5,0.4-0.8,0.9-1,1.4
			c-0.2,0.5-0.3,0.9-0.3,1.3c0,0.4,0.1,0.8,0.3,1.1c0.3,0.6,0.8,1,1.4,1.2c0.6,0.2,1.3,0.2,2,0.1c0.9-0.2,1.7-0.5,2.4-0.9
			c0.7-0.4,1.4-0.8,2-1.4c0.6-0.6,1.2-1.2,1.7-1.8C25.5,54.2,26,53.5,26.6,52.5z M38.2,44.4c0-0.2,0-0.4,0-0.5s0-0.3-0.1-0.4
			c0-0.1-0.1-0.2-0.2-0.3C37.9,43,37.8,43,37.7,43c-0.1,0-0.1,0-0.2,0c-0.4,0-0.6,0.2-0.9,0.7c-0.5,1-1.4,2.9-2.6,5.6
			c1.1-0.6,2.1-1.3,2.9-2.2C37.7,46.1,38.1,45.2,38.2,44.4z"/>
		<path d="M41.6,52.4c0.1,0,0.2,0,0.2,0s0.1,0,0.2,0.1c0.1,0.1,0.2,0.2,0.2,0.3c0,0.1,0,0.2-0.1,0.4c-0.5,0.6-0.7,1-0.8,1
			c-0.1,0.1-0.2,0.3-0.4,0.5c-0.2,0.3-0.4,0.4-0.6,0.6c-0.1,0.1-0.3,0.2-0.5,0.4s-0.4,0.3-0.6,0.3c-0.2,0.1-0.4,0.1-0.6,0.1h0
			c-0.3,0-0.5-0.1-0.6-0.4c-0.1-0.2-0.2-0.4-0.2-0.7c-0.8,0.9-1.4,1.3-2,1.4c0,0-0.1,0-0.1,0c-0.4,0-0.7-0.2-0.9-0.5
			c-0.5-0.7-0.5-1.7,0-2.8c0.4-0.8,0.9-1.5,1.6-2.2c0.7-0.7,1.4-1,2.2-1.1c0.2,0,0.5,0,0.7,0s0.4,0.1,0.5,0.1
			c0.1,0.1,0.3,0.1,0.4,0.2c0.1,0.1,0.2,0.1,0.2,0.2c0,0,0.1,0.1,0.1,0.1c0.1,0.1,0.1,0.2,0.1,0.4c0,0.1-0.1,0.2-0.2,0.3
			c-0.1,0.1-0.2,0.1-0.4,0.1c-0.1,0-0.2-0.1-0.3-0.2c-0.2-0.2-0.5-0.3-1-0.2c-0.5,0-1.1,0.3-1.6,0.9c-0.6,0.5-1,1.1-1.4,1.9
			c-0.4,0.8-0.4,1.4-0.1,1.8c0,0.1,0.1,0.1,0.2,0.1c0.3,0,0.8-0.4,1.4-1.1c0.6-0.7,1.1-1.5,1.7-2.4c0.1-0.1,0.2-0.2,0.3-0.2
			c0.1,0,0.2,0,0.4,0c0.1,0.1,0.2,0.2,0.2,0.3c0,0.1,0,0.3-0.1,0.4c-0.2,0.4-0.4,0.8-0.7,1.2l0,0c-0.1,0.2-0.1,0.4-0.2,0.7
			c0,0.3,0,0.6,0.1,0.9c0.4-0.1,0.8-0.4,1.3-0.8c0.4-0.4,0.9-1,1.5-1.7C41.4,52.5,41.5,52.4,41.6,52.4z"/>
		<path d="M46.7,52.7c0.1,0,0.2,0,0.4,0.1c0.1,0.1,0.2,0.2,0.2,0.3c0,0.1,0,0.2-0.1,0.4c-0.8,1-1.6,1.7-2.4,2.1
			c-0.8,0.5-1.4,0.7-2,0.7c-0.3,0-0.5-0.1-0.7-0.2c-0.4-0.2-0.7-0.6-0.9-1.2c-0.1-0.6-0.1-1.1,0-1.6c0.2-1,0.8-1.8,1.5-2.7
			c0.8-0.8,1.5-1.2,2.4-1.1c0.4,0,0.7,0.2,0.9,0.6c0.1,0.1,0.1,0.3,0.1,0.5c0,0.2,0,0.4-0.1,0.6c0,0.2-0.1,0.4-0.2,0.6
			c-0.1,0.2-0.1,0.3-0.2,0.4c-0.1,0.1-0.1,0.2-0.1,0.3c-0.1,0.1-0.2,0.2-0.3,0.2c-0.1,0-0.2,0-0.4-0.1c-0.1-0.1-0.2-0.2-0.2-0.3
			c0-0.1,0-0.2,0.1-0.4c0.1-0.3,0.3-0.5,0.4-0.8c0.1-0.3,0.1-0.5,0.1-0.6c0,0-0.1,0-0.1,0c-0.5-0.1-1,0.2-1.6,0.9
			c-0.6,0.7-1,1.4-1.2,2.1c-0.1,0.3-0.1,0.6,0,1c0.1,0.3,0.2,0.6,0.4,0.7c0.3,0.2,0.8,0.1,1.6-0.3c0.7-0.4,1.5-1.1,2.5-2.1
			C46.5,52.8,46.6,52.7,46.7,52.7z"/>
		<path d="M52.7,50.5c0.1,0,0.3,0,0.4,0.1c0.1,0.1,0.2,0.2,0.2,0.3c0,0.1,0,0.2-0.1,0.4c-0.4,0.6-0.8,1-1.3,1.3
			c-0.5,0.3-1,0.5-1.6,0.5c-0.2,0.5-0.6,1.1-1,1.7c-0.8,1.1-1.5,1.6-2.1,1.6c-0.2,0-0.3,0-0.5-0.1c-0.3-0.2-0.5-0.5-0.6-0.9
			C46,54.9,46,54.4,46,54c0-0.5,0.1-0.9,0.2-1.2c0.3-0.9,0.7-1.6,1.4-2.2c0.7-0.6,1.4-0.9,2.2-0.9c0.1,0,0.2,0,0.3,0.1
			c0.1,0.1,0.1,0.2,0.1,0.3c0,0.1,0,0.1,0,0.2c0.1,0.1,0.3,0.3,0.3,0.4c0.2,0.4,0.2,0.8,0.1,1.3c0.7-0.2,1.3-0.6,1.7-1.3
			C52.5,50.6,52.6,50.5,52.7,50.5z M48.5,54.1c0.3-0.4,0.6-0.8,0.8-1.2c-0.5-0.1-0.9-0.4-1-0.8c-0.1-0.2-0.1-0.5-0.1-0.7
			c-0.5,0.5-0.8,1-1,1.7C47,53.5,47,54,47,54.5c0,0.5,0.1,0.8,0.2,0.8c0,0,0.1,0,0.1,0c0.1,0,0.2-0.1,0.4-0.3
			C48,54.8,48.3,54.5,48.5,54.1z M49.7,52c0.1-0.4,0.1-0.7,0-0.9c0-0.1-0.1-0.2-0.2-0.2h0c-0.1,0-0.1,0-0.1,0.1
			c-0.2,0.3-0.3,0.5-0.2,0.7C49.2,51.8,49.4,52,49.7,52z"/>
	</g>
	<polyline class="st1" points="15.1,65.7 19.5,61.6 24.2,65.7 29,61.6 33.4,65.7 38.5,61.6 42.5,65.7 47.9,61.6 51.7,65.7 	"/>
	<polyline class="st2" points="15.1,68.5 19.5,64.4 24.2,68.5 29,64.4 33.4,68.5 38.5,64.4 42.5,68.5 47.9,64.4 51.7,68.5 	"/>
	<path class="st2" d="M28.9,34c0-1.9,2.1-3.4,4.5-3.4c2.5,0,4.3,1.7,4.3,3.4"/>
	<line class="st2" x1="33.5" y1="19.8" x2="33.5" y2="27.3"/>
	<path class="st2" d="M42.2,34.7c0,0,0.2,0.9,1.3,0.5s1.1-0.4,1.1-0.4s0.2,1.4,1.2,1.4"/>
	<path class="st2" d="M44.6,38.5c0,0,0.3,1.2,1.7,0.7c1.4-0.5,1.4-0.5,1.4-0.5s0.3,1.7,1.6,1.8"/>
</g>
</svg>
